<?xml version="1.0" standalone="no"?>
<!DOCTYPE svg PUBLIC "-//W3C//DTD SVG 20010904//EN"
 "http://www.w3.org/TR/2001/REC-SVG-20010904/DTD/svg10.dtd">
<svg version="1.0" xmlns="http://www.w3.org/2000/svg"
 width="500.000000pt" height="500.000000pt" viewBox="0 0 500.000000 500.000000"
 preserveAspectRatio="xMidYMid meet">
<metadata>
Created by potrace 1.14, written by Peter Selinger 2001-2017
</metadata>
<g transform="translate(0.000000,500.000000) scale(0.100000,-0.100000)"
fill="#000000" stroke="none">
<path d="M2549 4496 c-2 -2 -69 -6 -149 -9 -699 -29 -1333 -432 -1665 -1059
-84 -160 -146 -329 -181 -498 -9 -41 -18 -84 -20 -95 -23 -106 -26 -488 -6
-625 14 -91 38 -202 51 -235 5 -11 23 -65 41 -120 76 -238 245 -525 412 -703
235 -249 458 -401 764 -519 71 -28 140 -53 154 -56 109 -27 160 -38 190 -43
19 -3 46 -7 60 -10 112 -20 387 -26 535 -11 113 11 287 52 423 99 477 163 873
504 1115 958 103 193 190 472 214 690 9 84 10 376 1 460 -12 111 -53 295 -84
381 -9 24 -17 49 -18 54 -12 44 -104 251 -137 307 -16 27 -29 51 -29 54 0 9
-116 173 -172 241 -161 198 -382 378 -622 508 -165 89 -432 178 -601 201 -27
3 -52 8 -55 9 -4 2 -51 7 -105 11 -55 3 -103 8 -106 10 -3 2 -8 2 -10 0z"/>
</g>
</svg>
